REM DIRINDEX 1\2,1\3
REM DIRNAME folder01,folder02,folder03
TITLE ""
FILE "3361-3380.mp3" MP3
  TRACK 01 AUDIO
    TITLE "0:"
    INDEX 01 00:00:00
  TRACK 02 AUDIO
    TITLE "2:cjc039_5721"
    INDEX 01 00:00:25
  TRACK 03 AUDIO
    TITLE "0:"
    INDEX 01 00:01:30
  TRACK 04 AUDIO
    TITLE "3:cjc039_5722"
    INDEX 01 00:02:04
  TRACK 05 AUDIO
    TITLE "0:"
    INDEX 01 00:05:30
  TRACK 06 AUDIO
    TITLE "2:cjc039_5723"
    INDEX 01 00:07:02
  TRACK 07 AUDIO
    TITLE "0:"
    INDEX 01 00:08:26
  TRACK 08 AUDIO
    TITLE "3:cjc039_5724"
    INDEX 01 00:09:00
  TRACK 09 AUDIO
    TITLE "0:"
    INDEX 01 00:13:02
  TRACK 10 AUDIO
    TITLE "2:cjc039_5725"
    INDEX 01 00:14:56
  TRACK 11 AUDIO
    TITLE "0:"
    INDEX 01 00:16:02
  TRACK 12 AUDIO
    TITLE "3:cjc039_5726"
    INDEX 01 00:16:53
  TRACK 13 AUDIO
    TITLE "0:"
    INDEX 01 00:19:46
  TRACK 14 AUDIO
    TITLE "2:cjc039_5727"
    INDEX 01 00:21:17
  TRACK 15 AUDIO
    TITLE "0:"
    INDEX 01 00:22:25
  TRACK 16 AUDIO
    TITLE "3:cjc039_5728"
    INDEX 01 00:23:01
  TRACK 17 AUDIO
    TITLE "0:"
    INDEX 01 00:26:03
  TRACK 18 AUDIO
    TITLE "2:cjc039_5729"
    INDEX 01 00:27:55
  TRACK 19 AUDIO
    TITLE "0:"
    INDEX 01 00:28:74
  TRACK 20 AUDIO
    TITLE "3:cjc039_5730"
    INDEX 01 00:29:48
  TRACK 21 AUDIO
    TITLE "0:"
    INDEX 01 00:32:56
  TRACK 22 AUDIO
    TITLE "2:cjc039_5731"
    INDEX 01 00:34:32
  TRACK 23 AUDIO
    TITLE "0:"
    INDEX 01 00:36:09
  TRACK 24 AUDIO
    TITLE "3:cjc039_5732"
    INDEX 01 00:36:64
  TRACK 25 AUDIO
    TITLE "0:"
    INDEX 01 00:41:00
  TRACK 26 AUDIO
    TITLE "2:cjc039_5733"
    INDEX 01 00:42:51
  TRACK 27 AUDIO
    TITLE "0:"
    INDEX 01 00:43:70
  TRACK 28 AUDIO
    TITLE "3:cjc039_5734"
    INDEX 01 00:44:44
  TRACK 29 AUDIO
    TITLE "0:"
    INDEX 01 00:48:30
  TRACK 30 AUDIO
    TITLE "2:cjc039_5735"
    INDEX 01 00:50:03
  TRACK 31 AUDIO
    TITLE "0:"
    INDEX 01 00:51:36
  TRACK 32 AUDIO
    TITLE "3:cjc039_5736"
    INDEX 01 00:52:12
  TRACK 33 AUDIO
    TITLE "0:"
    INDEX 01 00:55:40
  TRACK 34 AUDIO
    TITLE "2:cjc039_5737"
    INDEX 01 00:57:13
  TRACK 35 AUDIO
    TITLE "0:"
    INDEX 01 00:58:30
  TRACK 36 AUDIO
    TITLE "3:cjc039_5738"
    INDEX 01 00:59:08
  TRACK 37 AUDIO
    TITLE "0:"
    INDEX 01 01:01:58
  TRACK 38 AUDIO
    TITLE "2:cjc039_5739"
    INDEX 01 01:03:33
  TRACK 39 AUDIO
    TITLE "0:"
    INDEX 01 01:04:56
  TRACK 40 AUDIO
    TITLE "3:cjc039_5740"
    INDEX 01 01:05:34
  TRACK 41 AUDIO
    TITLE "0:"
    INDEX 01 01:08:13
  TRACK 42 AUDIO
    TITLE "2:cjc039_5741"
    INDEX 01 01:09:57
  TRACK 43 AUDIO
    TITLE "0:"
    INDEX 01 01:10:67
  TRACK 44 AUDIO
    TITLE "3:cjc039_5742"
    INDEX 01 01:11:45
  TRACK 45 AUDIO
    TITLE "0:"
    INDEX 01 01:17:00
  TRACK 46 AUDIO
    TITLE "2:cjc039_5743"
    INDEX 01 01:18:53
  TRACK 47 AUDIO
    TITLE "0:"
    INDEX 01 01:19:70
  TRACK 48 AUDIO
    TITLE "3:cjc039_5744"
    INDEX 01 01:20:44
  TRACK 49 AUDIO
    TITLE "0:"
    INDEX 01 01:24:22
  TRACK 50 AUDIO
    TITLE "2:cjc039_5745"
    INDEX 01 01:25:70
  TRACK 51 AUDIO
    TITLE "0:"
    INDEX 01 01:27:12
  TRACK 52 AUDIO
    TITLE "3:cjc039_5746"
    INDEX 01 01:27:67
  TRACK 53 AUDIO
    TITLE "0:"
    INDEX 01 01:30:71
  TRACK 54 AUDIO
    TITLE "2:cjc039_5747"
    INDEX 01 01:32:49
  TRACK 55 AUDIO
    TITLE "0:"
    INDEX 01 01:34:20
  TRACK 56 AUDIO
    TITLE "3:cjc039_5748"
    INDEX 01 01:34:73
  TRACK 57 AUDIO
    TITLE "0:"
    INDEX 01 01:38:30
  TRACK 58 AUDIO
    TITLE "2:cjc039_5749"
    INDEX 01 01:40:07
  TRACK 59 AUDIO
    TITLE "0:"
    INDEX 01 01:41:22
  TRACK 60 AUDIO
    TITLE "3:cjc039_5750"
    INDEX 01 01:42:00
  TRACK 61 AUDIO
    TITLE "0:"
    INDEX 01 01:45:14
  TRACK 62 AUDIO
    TITLE "2:cjc039_5751"
    INDEX 01 01:46:70
  TRACK 63 AUDIO
    TITLE "0:"
    INDEX 01 01:48:20
  TRACK 64 AUDIO
    TITLE "3:cjc039_5752"
    INDEX 01 01:48:73
  TRACK 65 AUDIO
    TITLE "0:"
    INDEX 01 01:54:62
  TRACK 66 AUDIO
    TITLE "2:cjc039_5753"
    INDEX 01 01:56:43
  TRACK 67 AUDIO
    TITLE "0:"
    INDEX 01 01:57:66
  TRACK 68 AUDIO
    TITLE "3:cjc039_5754"
    INDEX 01 01:58:46
  TRACK 69 AUDIO
    TITLE "0:"
    INDEX 01 02:02:09
  TRACK 70 AUDIO
    TITLE "2:cjc039_5755"
    INDEX 01 02:03:61
  TRACK 71 AUDIO
    TITLE "0:"
    INDEX 01 02:05:09
  TRACK 72 AUDIO
    TITLE "3:cjc039_5756"
    INDEX 01 02:05:62
  TRACK 73 AUDIO
    TITLE "0:"
    INDEX 01 02:09:07
  TRACK 74 AUDIO
    TITLE "2:cjc039_5757"
    INDEX 01 02:10:59
  TRACK 75 AUDIO
    TITLE "0:"
    INDEX 01 02:12:27
  TRACK 76 AUDIO
    TITLE "3:cjc039_5758"
    INDEX 01 02:13:09
  TRACK 77 AUDIO
    TITLE "0:"
    INDEX 01 02:16:58
  TRACK 78 AUDIO
    TITLE "2:cjc039_5759"
    INDEX 01 02:18:29
  TRACK 79 AUDIO
    TITLE "0:"
    INDEX 01 02:19:58
  TRACK 80 AUDIO
    TITLE "3:cjc039_5760"
    INDEX 01 02:20:40
  TRACK 81 AUDIO
    TITLE "0:"
    INDEX 01 02:24:63
